<svg width="28" height="28" viewBox="0 0 28 28" xmlns="http://www.w3.org/2000/svg">
<path d="M27.9973 7.14613C27.9973 6.28513 27.9247 5.42763 27.7191 4.58938C27.3498 3.0625 26.4792 1.89613 25.1763 1.0395C24.5061 0.602 23.7684 0.333375 22.9844 0.191625C22.3824 0.0862903 21.773 0.0283625 21.1618 0.018375C21.1163 0.014 21.0664 0.004375 21.0157 0H6.98856C6.81094 0.014 6.63331 0.02275 6.45569 0.0315C5.58506 0.081375 4.71969 0.172375 3.89894 0.5005C2.34056 1.11563 1.21444 2.191 0.558187 3.74063C0.330687 4.26475 0.216062 4.82038 0.134687 5.38563C0.0664375 5.8415 0.0296875 6.30175 0.0165625 6.762C0.0165625 6.79875 0.0078125 6.83463 0.0078125 6.87138V21.1313L0.0349375 21.6239C0.0944375 22.5768 0.216937 23.52 0.618562 24.395C1.37544 26.0496 2.64681 27.1381 4.39244 27.6623C4.87981 27.8128 5.39081 27.881 5.90094 27.9265C6.54844 27.9904 7.19506 27.9991 7.84256 27.9991H20.7121C21.3228 27.9991 21.9336 27.958 22.5443 27.881C23.5059 27.7576 24.4081 27.475 25.2244 26.9378C26.1908 26.3117 26.9527 25.4166 27.4163 24.3626C27.6351 23.87 27.7584 23.3468 27.8494 22.8174C27.9816 22.029 28.0087 21.231 28.0087 20.4339C28.0043 16.0038 28.0087 11.5745 28.0043 7.14438L27.9973 7.14613ZM20.5047 11.7985V18.4616C20.5047 18.949 20.4364 19.4276 20.2177 19.8695C19.8808 20.5573 19.3339 20.9904 18.5998 21.2004C18.1931 21.3169 17.7739 21.3842 17.3512 21.4008C16.8196 21.4322 16.295 21.267 15.8773 20.9368C15.4596 20.6065 15.1779 20.1341 15.0858 19.6096C15.0015 19.1377 15.0744 18.6512 15.2933 18.2247C15.5122 17.7982 15.8651 17.4554 16.2977 17.2489C16.6713 17.0669 17.0773 16.9575 17.4824 16.8753C17.9243 16.7799 18.3662 16.6933 18.8037 16.5926C19.1274 16.52 19.3366 16.324 19.4004 15.9906C19.4188 15.918 19.4232 15.8401 19.4232 15.7675V9.415C19.4216 9.34251 19.411 9.2705 19.3917 9.20063C19.3462 9.023 19.2184 8.918 19.0364 8.92675C18.8492 8.9355 18.6672 8.96788 18.4852 9.00463C17.5962 9.17788 16.7081 9.3555 15.8234 9.5375L11.5079 10.4081C11.4896 10.4125 11.4668 10.4221 11.4484 10.4221C11.1247 10.5131 11.0109 10.6593 10.9969 10.9961C10.9926 11.046 10.9969 11.0968 10.9969 11.1466C10.9926 14.182 10.9969 17.2174 10.9926 20.2519C10.9926 20.7445 10.9374 21.2275 10.7423 21.6825C10.4186 22.4298 9.84456 22.8996 9.07019 23.1228C8.6608 23.2419 8.23808 23.3092 7.81194 23.3231C6.69544 23.3643 5.76531 22.6214 5.57456 21.5233C5.41006 20.5756 5.84319 19.5545 6.91856 19.0986C7.33769 18.9254 7.77081 18.83 8.21269 18.739L9.21544 18.5343C9.66169 18.4389 9.89444 18.1563 9.91719 17.7004V7.16363C9.91719 7.0175 9.93556 6.87225 9.96706 6.7305C10.0493 6.398 10.2864 6.20638 10.6049 6.1285C10.9016 6.05063 11.2069 5.99638 11.5071 5.9325C12.3637 5.75925 13.2159 5.586 14.0726 5.41713L16.7203 4.879C17.5043 4.72413 18.2831 4.56488 19.0671 4.41C19.3226 4.36013 19.5824 4.305 19.8414 4.28663C20.2011 4.25513 20.4522 4.48263 20.4889 4.8475C20.4977 4.93413 20.5029 5.02075 20.5029 5.10738V11.7933L20.5047 11.7985Z"/>
</svg>
