<svg width="25" height="25" viewBox="0 0 25 25" xmlns="http://www.w3.org/2000/svg">
<path d="M12.5 6.5C13.6867 6.5 14.8467 6.85189 15.8334 7.51118C16.8201 8.17047 17.5892 9.10754 18.0433 10.2039C18.4974 11.3003 18.6162 12.5067 18.3847 13.6705C18.1532 14.8344 17.5818 15.9035 16.7426 16.7426C15.9035 17.5818 14.8344 18.1532 13.6705 18.3847C12.5067 18.6162 11.3003 18.4974 10.2039 18.0433C9.10754 17.5892 8.17047 16.8201 7.51118 15.8334C6.85189 14.8467 6.5 13.6867 6.5 12.5C6.5 10.9087 7.13214 9.38258 8.25736 8.25736C9.38258 7.13214 10.9087 6.5 12.5 6.5ZM12.5 16.5C13.2911 16.5 14.0645 16.2654 14.7223 15.8259C15.3801 15.3864 15.8928 14.7616 16.1955 14.0307C16.4983 13.2998 16.5775 12.4956 16.4231 11.7196C16.2688 10.9437 15.8878 10.231 15.3284 9.67157C14.769 9.11216 14.0563 8.7312 13.2804 8.57686C12.5044 8.42252 11.7002 8.50173 10.9693 8.80448C10.2384 9.10723 9.61365 9.61992 9.17412 10.2777C8.7346 10.9355 8.5 11.7089 8.5 12.5C8.5033 13.5599 8.92578 14.5754 9.67521 15.3248C10.4246 16.0742 11.4401 16.4967 12.5 16.5ZM7 0H18C19.8565 0 21.637 0.737498 22.9497 2.05025C24.2625 3.36301 25 5.14348 25 7V18C25 19.8565 24.2625 21.637 22.9497 22.9497C21.637 24.2625 19.8565 25 18 25H7C5.14348 25 3.36301 24.2625 2.05025 22.9497C0.737499 21.637 0 19.8565 0 18V7C0 5.14348 0.737499 3.36301 2.05025 2.05025C3.36301 0.737498 5.14348 0 7 0ZM2 18C2 18.6566 2.12933 19.3068 2.3806 19.9134C2.63188 20.52 3.00017 21.0712 3.46447 21.5355C3.92876 21.9998 4.47995 22.3681 5.08658 22.6194C5.69321 22.8707 6.34339 23 7 23H18C18.6566 23 19.3068 22.8707 19.9134 22.6194C20.52 22.3681 21.0712 21.9998 21.5355 21.5355C21.9998 21.0712 22.3681 20.52 22.6194 19.9134C22.8707 19.3068 23 18.6566 23 18V7C23 5.67392 22.4732 4.40215 21.5355 3.46447C20.5979 2.52678 19.3261 2 18 2H7C6.34339 2 5.69321 2.12933 5.08658 2.3806C4.47995 2.63188 3.92876 3.00017 3.46447 3.46447C3.00017 3.92876 2.63188 4.47996 2.3806 5.08658C2.12933 5.69321 2 6.34339 2 7V18ZM4.5 6C4.5 6.29667 4.58797 6.58668 4.7528 6.83335C4.91762 7.08003 5.15189 7.27229 5.42598 7.38582C5.70007 7.49935 6.00166 7.52906 6.29263 7.47118C6.58361 7.4133 6.85088 7.27044 7.06066 7.06066C7.27044 6.85088 7.4133 6.58361 7.47118 6.29264C7.52906 6.00166 7.49935 5.70006 7.38582 5.42597C7.27229 5.15189 7.08003 4.91762 6.83335 4.7528C6.58668 4.58797 6.29667 4.5 6 4.5C5.60217 4.5 5.22065 4.65804 4.93934 4.93934C4.65804 5.22064 4.5 5.60218 4.5 6Z"/>
</svg>
