<svg width="28" height="28" viewBox="0 0 28 28" xmlns="http://www.w3.org/2000/svg">
<path d="M13.9169 27.9995C11.02 27.9995 8.20255 27.093 5.80388 25.3605C4.31315 24.2881 3.0494 22.9313 2.08548 21.3683C1.12156 19.8053 0.476518 18.0669 0.187547 16.2535C-0.112811 14.4405 -0.051914 12.5861 0.366738 10.7968C0.785391 9.00742 1.55354 7.31847 2.62705 5.82696C3.68998 4.33147 5.03996 3.06252 6.5983 2.09406C8.15664 1.12561 9.89217 0.477031 11.7037 0.18613C13.51 -0.113548 15.3579 -0.0508503 17.1397 0.370571C18.9215 0.791993 20.6017 1.56372 22.0824 2.6408C23.5732 3.7134 24.8371 5.07038 25.8012 6.63358C26.7653 8.19678 27.4106 9.93529 27.6999 11.749C28 13.5619 27.939 15.4163 27.5203 17.2056C27.1017 18.9949 26.3337 20.6838 25.2604 22.1755C24.1972 23.6707 22.8472 24.9395 21.2889 25.9079C19.7306 26.8764 17.9952 27.5251 16.1837 27.8163C15.4342 27.9379 14.6762 27.9991 13.9169 27.9995ZM6.36388 24.5858C7.74278 25.5886 9.30734 26.3073 10.9665 26.6998C12.6257 27.0924 14.3465 27.1511 16.0285 26.8725C17.7157 26.601 19.332 25.9965 20.7833 25.0944C22.2346 24.1923 23.492 23.0105 24.4822 21.6178C28.6624 15.781 27.3347 7.6143 21.5212 3.4143C20.1423 2.41145 18.5777 1.69283 16.9185 1.30026C15.2593 0.907697 13.5386 0.849014 11.8565 1.12763C10.1697 1.39942 8.55365 2.00395 7.10255 2.90605C5.65146 3.80816 4.39424 4.98982 3.40405 6.3823C-0.777286 12.2203 0.551547 20.3858 6.36388 24.5858ZM18.7375 20.4418C19.1459 20.3296 19.5177 20.1124 19.8161 19.812C20.1145 19.5115 20.3291 19.1382 20.4385 18.7291L20.5109 18.4771L20.5202 11.7268C20.5272 6.67046 20.5202 4.9438 20.4922 4.8493C20.4662 4.75657 20.4191 4.67112 20.3545 4.59963C20.2574 4.54141 20.1458 4.51188 20.0325 4.51446C19.9474 4.51446 19.6534 4.5553 19.3792 4.60546C18.1647 4.82713 11.0072 6.25163 10.8847 6.29713C10.6861 6.37633 10.5215 6.52241 10.4192 6.71013L10.3434 6.85946C10.3434 6.85946 10.3072 17.4411 10.2524 17.5601C10.1632 17.7469 10.0064 17.8929 9.81371 17.9685C9.57871 18.0296 9.34175 18.0829 9.10321 18.1283C7.66705 18.4141 7.13388 18.6195 6.68238 19.0628C6.42571 19.3148 6.23671 19.6578 6.15388 20.0195C6.07571 20.3625 6.10138 20.8781 6.21338 21.192C6.33005 21.5198 6.51905 21.7998 6.76521 22.0203C6.98921 22.193 7.25405 22.3213 7.55155 22.3983C8.20838 22.5663 9.43921 22.3796 10.0692 22.0156C10.3741 21.8242 10.6385 21.5749 10.8474 21.2818C10.9174 21.178 11.0224 20.9691 11.0807 20.8163C11.286 20.2843 11.2919 10.8051 11.3187 10.6861C11.3367 10.5908 11.3813 10.5025 11.4473 10.4315C11.5134 10.3604 11.5983 10.3096 11.692 10.2848C11.8635 10.2381 18.7562 8.87663 18.951 8.8498C19.1214 8.82646 19.2824 8.8813 19.371 8.9898C19.4223 9.01574 19.466 9.05428 19.4982 9.1018C19.5542 9.18347 19.5577 9.3503 19.5659 12.351C19.5752 15.8043 19.5799 15.725 19.392 15.9431C19.2555 16.1018 19.0852 16.1636 18.384 16.3048C17.3177 16.5241 16.9537 16.6268 16.5454 16.8263C16.0355 17.0748 15.7532 17.3466 15.5339 17.8005C15.3911 18.0715 15.3181 18.3738 15.3215 18.6801C15.3227 19.2518 15.5187 19.6963 15.9632 20.1326C16.004 20.1723 16.0437 20.2096 16.0845 20.2458C16.3085 20.4185 16.536 20.5235 16.823 20.5888C17.2547 20.6845 18.1344 20.618 18.7375 20.4418Z"/>
</svg>
