<svg width="40" height="40" viewBox="0 0 40 40" fill="none" xmlns="http://www.w3.org/2000/svg">
<path d="M22.5 10.0001C22.4997 9.76484 22.433 9.5345 22.3076 9.33549C22.1822 9.13648 22.0032 8.97689 21.7912 8.87506C21.5792 8.77322 21.3427 8.73328 21.109 8.75981C20.8753 8.78634 20.6538 8.87828 20.47 9.02505L14.5625 13.7501H8.75C8.41848 13.7501 8.10054 13.8817 7.86612 14.1162C7.6317 14.3506 7.5 14.6685 7.5 15.0001V25.0001C7.5 25.3316 7.6317 25.6495 7.86612 25.8839C8.10054 26.1184 8.41848 26.2501 8.75 26.2501H14.5625L20.47 30.9751C20.6538 31.1218 20.8753 31.2138 21.109 31.2403C21.3427 31.2668 21.5792 31.2269 21.7912 31.125C22.0032 31.0232 22.1822 30.8636 22.3076 30.6646C22.433 30.4656 22.4997 30.2353 22.5 30.0001V10.0001Z" fill="#4E5871"/>
<path d="M26.7106 11.7856C28.5127 14.0289 29.4314 16.756 29.4668 19.967C29.4668 23.0461 28.548 25.6852 26.7106 27.8846L24.8555 25.5093C26.1275 23.9258 26.7636 22.0564 26.7636 19.9011C26.7636 17.7017 26.1275 15.7883 24.8555 14.1608L26.7106 11.7856ZM29.8908 7.89282C32.541 11.1918 33.8661 15.1725 33.8661 19.8351C33.8661 24.4977 32.541 28.5003 29.8908 31.8433L27.9297 29.4021C30.0498 26.8069 31.1099 23.6289 31.1099 19.8681C31.1099 16.1073 30.0498 12.9073 27.9297 10.2681L29.8908 7.89282Z" fill="#4E5871"/>
</svg>
