<svg width="40" height="40" viewBox="0 0 40 40" fill="none" xmlns="http://www.w3.org/2000/svg">
<path d="M22.5 10.0001C22.4997 9.76484 22.433 9.5345 22.3076 9.33549C22.1822 9.13648 22.0032 8.97689 21.7912 8.87506C21.5792 8.77322 21.3427 8.73328 21.109 8.75981C20.8753 8.78634 20.6538 8.87828 20.47 9.02505L14.5625 13.7501H8.75C8.41848 13.7501 8.10054 13.8817 7.86612 14.1162C7.6317 14.3506 7.5 14.6685 7.5 15.0001V25.0001C7.5 25.3316 7.6317 25.6495 7.86612 25.8839C8.10054 26.1184 8.41848 26.2501 8.75 26.2501H14.5625L20.47 30.9751C20.6538 31.1218 20.8753 31.2138 21.109 31.2403C21.3427 31.2668 21.5792 31.2269 21.7912 31.125C22.0032 31.0232 22.1822 30.8636 22.3076 30.6646C22.433 30.4656 22.4997 30.2353 22.5 30.0001V10.0001ZM30.0625 20.0001C30.0644 21.4777 29.7743 22.9412 29.2089 24.3064C28.6434 25.6716 27.8137 26.9115 26.7675 27.9551L25 26.1876C25.8137 25.3759 26.459 24.4114 26.8988 23.3495C27.3385 22.2877 27.5641 21.1494 27.5625 20.0001C27.5639 18.8508 27.3383 17.7125 26.8986 16.6506C26.4588 15.5888 25.8136 14.6243 25 13.8126L26.7675 12.0451C27.8137 13.0886 28.6434 14.3286 29.2089 15.6937C29.7743 17.0589 30.0644 18.5224 30.0625 20.0001Z" fill="#4E5871"/>
</svg>
