<svg width="27" height="27" viewBox="0 0 27 27" fill="none" xmlns="http://www.w3.org/2000/svg">
<path d="M10.515 5.77826C9.34597 6.0059 8.27161 6.57654 7.42941 7.41713C6.58721 8.25772 6.01549 9.33002 5.78741 10.4968M10.515 1C8.08623 1.2693 5.82141 2.35485 4.09238 4.0784C2.36334 5.80196 1.27287 8.06109 0.999999 10.4848M2.19685 20.0175V23.6012C2.1955 23.9339 2.26378 24.2632 2.39731 24.568C2.53085 24.8728 2.7267 25.1464 2.97232 25.3714C3.21794 25.5963 3.50792 25.7675 3.82368 25.8741C4.13943 25.9807 4.47402 26.0202 4.80599 25.9903C8.48891 25.5909 12.0266 24.3348 15.1348 22.323C18.0266 20.4889 20.4784 18.0419 22.3159 15.1556C24.3387 12.0392 25.5974 8.49111 25.9903 4.79872C26.0202 4.46838 25.9809 4.13545 25.8748 3.82111C25.7687 3.50678 25.5982 3.21794 25.3742 2.97297C25.1501 2.728 24.8774 2.53228 24.5735 2.39826C24.2695 2.26425 23.9409 2.19488 23.6085 2.19457H20.018C19.4371 2.18886 18.874 2.39415 18.4336 2.77218C17.9932 3.1502 17.7056 3.67517 17.6243 4.24922C17.4727 5.39608 17.1917 6.52215 16.7865 7.60595C16.6255 8.03351 16.5906 8.49818 16.6861 8.94491C16.7815 9.39164 17.0033 9.80169 17.3251 10.1265L18.8451 11.6436C17.1413 14.6342 14.6603 17.1104 11.664 18.811L10.144 17.2939C9.81854 16.9727 9.40771 16.7514 8.96012 16.6561C8.51254 16.5608 8.04698 16.5956 7.6186 16.7563C6.53272 17.1607 5.4045 17.4413 4.25544 17.5925C3.67405 17.6744 3.14308 17.9667 2.76352 18.4138C2.38396 18.8609 2.18229 19.4316 2.19685 20.0175Z" stroke-linecap="round" stroke-linejoin="round"/>
</svg>
