<svg width="28" height="28" viewBox="0 0 28 28" xmlns="http://www.w3.org/2000/svg">
<g clip-path="url(#clip0_617_960)">
<path opacity="0.5" d="M5.66581 2.86198C7.72575 1.33559 10.1604 0.412873 12.6979 0.183594V4.3825C11.0576 4.59515 9.49112 5.22315 8.15114 6.21606C6.4733 7.45933 5.23943 9.20891 4.63153 11.2067C4.02364 13.2046 4.07388 15.3449 4.77489 17.312C5.47589 19.2791 6.79053 20.9689 8.52488 22.132C10.2592 23.2951 12.3215 23.8701 14.4075 23.7721C16.4934 23.6741 18.4926 22.9082 20.1103 21.5876C21.7279 20.2669 22.8783 18.4613 23.3918 16.4372C23.75 15.0253 23.785 13.5592 23.5045 12.1457L27.0304 9.3111L27.028 9.28824C27.9799 11.9065 28.1253 14.7549 27.4382 17.4637C26.7046 20.3553 25.0613 22.9347 22.7503 24.8214C20.4394 26.7079 17.5834 27.8019 14.6034 27.9419C11.6234 28.0819 8.67737 27.2606 6.19971 25.5989C3.72207 23.9374 1.84401 21.5235 0.842591 18.7133C-0.158841 15.9032 -0.230639 12.8456 0.637785 9.99155C1.50621 7.13748 3.26888 4.63808 5.66581 2.86198Z" />
<path d="M24.3714 4.82109L24.3862 4.85809L22.03 8.60045C21.173 7.33066 20.0248 6.27373 18.681 5.52562V14.0421C18.681 16.655 16.5628 18.7732 13.9499 18.7732C11.3369 18.7732 9.21875 16.655 9.21875 14.0421C9.21875 11.4291 11.3369 9.31092 13.9499 9.31092C14.9291 9.31092 15.8389 9.60845 16.5937 10.118V0.377808C19.6654 0.968614 22.3777 2.56942 24.3714 4.82109Z" />
</g>
<defs>
<clipPath id="clip0_617_960">
<rect width="28" height="28" fill="white"/>
</clipPath>
</defs>
</svg>
