<svg width="30" height="22" viewBox="0 0 30 22" fill="none" xmlns="http://www.w3.org/2000/svg">
<path d="M28.1747 4.025C28.0263 3.43176 27.7238 2.88821 27.2981 2.44926C26.8723 2.0103 26.3382 1.69148 25.7497 1.525C23.5997 1 14.9997 1 14.9997 1C14.9997 1 6.39974 1 4.24974 1.575C3.6613 1.74148 3.12721 2.0603 2.70142 2.49926C2.27563 2.93821 1.97322 3.48176 1.82474 4.075C1.43126 6.25694 1.23878 8.47039 1.24974 10.6875C1.23571 12.9213 1.4282 15.1516 1.82474 17.35C1.98844 17.9248 2.29762 18.4477 2.72242 18.8681C3.14721 19.2885 3.67326 19.5923 4.24974 19.75C6.39974 20.325 14.9997 20.325 14.9997 20.325C14.9997 20.325 23.5997 20.325 25.7497 19.75C26.3382 19.5835 26.8723 19.2647 27.2981 18.8257C27.7238 18.3868 28.0263 17.8432 28.1747 17.25C28.5652 15.0845 28.7576 12.8879 28.7497 10.6875C28.7638 8.45369 28.5713 6.22337 28.1747 4.025V4.025Z" stroke-linecap="round" stroke-linejoin="round"/>
<path d="M12.1875 14.7751L19.375 10.6876L12.1875 6.6001V14.7751Z" stroke-linecap="round" stroke-linejoin="round"/>
</svg>
