<svg width="40" height="40" viewBox="0 0 40 40" fill="none" xmlns="http://www.w3.org/2000/svg">
<path d="M27 10.2482C26.9997 10.013 26.933 9.78266 26.8076 9.58366C26.6822 9.38465 26.5032 9.22506 26.2912 9.12323C26.0792 9.02139 25.8427 8.98145 25.609 9.00798C25.3753 9.03451 25.1538 9.12645 24.97 9.27322L19.0625 13.9982H13.25C12.9185 13.9982 12.6005 14.1299 12.3661 14.3643C12.1317 14.5988 12 14.9167 12 15.2482V25.2482C12 25.5797 12.1317 25.8977 12.3661 26.1321C12.6005 26.3665 12.9185 26.4982 13.25 26.4982H19.0625L24.97 31.2232C25.1538 31.37 25.3753 31.4619 25.609 31.4885C25.8427 31.515 26.0792 31.4751 26.2912 31.3732C26.5032 31.2714 26.6822 31.1118 26.8076 30.9128C26.933 30.7138 26.9997 30.4834 27 30.2482V10.2482ZM20.28 16.2232L24.5 12.8482V27.6482L20.28 24.2732C20.0587 24.0957 19.7837 23.9987 19.5 23.9982H14.5V16.4982H19.5C19.7837 16.4977 20.0587 16.4007 20.28 16.2232Z" fill="#4E5871"/>
</svg>
