<svg width="40" height="40" viewBox="0 0 40 40" fill="none" xmlns="http://www.w3.org/2000/svg">
<path d="M32.7727 30L32.1061 29.3613L30.4097 27.6838L28.8034 26.0952L27.5008 24.8071L25.0007 22.3347V11.7205C25.0006 11.4968 24.9392 11.2775 24.8229 11.0856C24.7067 10.8938 24.54 10.7368 24.3407 10.6312C24.1413 10.5257 23.9168 10.4756 23.6909 10.4863C23.4651 10.497 23.2464 10.568 23.0581 10.6919L17.1591 14.5798L12.1339 9.61023L10.3663 11.3582L31 31.7429L32.7727 30ZM22.5006 14.0297V19.8622L18.9617 16.3625L22.5006 14.0297ZM12.5001 27.7913H15.8715L23.0569 32.5285C23.2454 32.6523 23.4642 32.7234 23.6902 32.7343C23.9162 32.7452 24.1409 32.6954 24.3407 32.5903C24.5402 32.4847 24.707 32.3275 24.8232 32.1355C24.9395 31.9434 25.0008 31.7238 25.0007 31.5V29.1771L22.5006 26.7047V29.1907L16.9441 25.5266C16.9128 25.5056 16.8741 25.5019 16.8416 25.4858C16.694 25.4063 16.5314 25.3575 16.3641 25.3424C16.3241 25.3387 16.2903 25.3189 16.2503 25.3189H12.5001V17.9016H13.5989L11.3776 15.7048C10.9649 15.9091 10.6177 16.2226 10.3744 16.6104C10.1312 16.9982 10.0016 17.4452 10 17.9016V25.3189C10 26.6824 11.1213 27.7913 12.5001 27.7913Z" fill="#4E5871"/>
</svg>
