<?xml version="1.0" encoding="utf-8"?><svg viewBox="0 0 30 27" xmlns="http://www.w3.org/2000/svg" xmlns:xlink="http://www.w3.org/1999/xlink"><style>:root>svg{display:none}:root>svg:target{display:block}</style><svg viewBox="0 0 27 24" id="arrow-slider" xmlns="http://www.w3.org/2000/svg"><path d="M.94 10.94a1.5 1.5 0 000 2.12l9.545 9.547a1.5 1.5 0 102.122-2.122L4.12 12l8.486-8.485a1.5 1.5 0 10-2.122-2.122L.94 10.94zM27 10.5H2v3h25v-3z"/></svg><svg viewBox="0 0 28 22" id="mail" xmlns="http://www.w3.org/2000/svg"><path d="M4 1h20c1.375 0 2.5 1.125 2.5 2.5v15c0 1.375-1.125 2.5-2.5 2.5H4a2.507 2.507 0 01-2.5-2.5v-15C1.5 2.125 2.625 1 4 1z"/><path d="M26.5 3.5L14 12.25 1.5 3.5"/></svg><svg fill="none" viewBox="0 0 27 27" id="phone" xmlns="http://www.w3.org/2000/svg"><path d="M10.515 5.778a5.988 5.988 0 00-3.086 1.64 5.97 5.97 0 00-1.642 3.079M10.515 1a10.78 10.78 0 00-6.423 3.078A10.743 10.743 0 001 10.485m1.197 9.532v3.584a2.385 2.385 0 001.627 2.273c.315.107.65.146.982.116 3.683-.4 7.22-1.655 10.329-3.667a23.316 23.316 0 007.18-7.167A23.61 23.61 0 0025.99 4.799a2.385 2.385 0 00-1.416-2.4 2.398 2.398 0 00-.966-.204h-3.59a2.396 2.396 0 00-2.394 2.054 15.317 15.317 0 01-.837 3.357 2.385 2.385 0 00.538 2.52l1.52 1.518a19.133 19.133 0 01-7.181 7.167l-1.52-1.517a2.395 2.395 0 00-2.525-.538 15.39 15.39 0 01-3.364.837 2.395 2.395 0 00-2.058 2.424z"/></svg><svg fill="none" viewBox="0 0 26 26" id="telegram" xmlns="http://www.w3.org/2000/svg"><path d="M8.17 14.862l-6.234-2.856c-1.905-1.013-.466-2.44.48-2.855l20.62-8.09c1.917-.38 2.077 1.11 1.917 1.904L19.68 23.427c-.767 2.285-1.918 1.587-2.398.952l-3.356-4.759M8.17 14.862l.48 8.09m-.48-8.09L24.474 1.537 12.007 17.241m-3.357 5.71l5.275-3.33M8.65 22.95l3.357-5.71m1.918 2.38l-1.918-2.38"/></svg><svg fill="none" viewBox="0 0 30 22" id="youtube" xmlns="http://www.w3.org/2000/svg"><path d="M28.175 4.025a3.475 3.475 0 00-2.425-2.5C23.6 1 15 1 15 1s-8.6 0-10.75.575a3.475 3.475 0 00-2.425 2.5 36.25 36.25 0 00-.575 6.612 36.25 36.25 0 00.575 6.663 3.475 3.475 0 002.425 2.4c2.15.575 10.75.575 10.75.575s8.6 0 10.75-.575a3.475 3.475 0 002.425-2.5c.39-2.165.583-4.362.575-6.563a36.238 36.238 0 00-.575-6.662z"/><path d="M12.188 14.775l7.187-4.087L12.187 6.6v8.175z"/></svg></svg>