<?xml version="1.0" encoding="utf-8"?><svg viewBox="0 0 150 57" xmlns="http://www.w3.org/2000/svg" xmlns:xlink="http://www.w3.org/1999/xlink"><style>:root>svg{display:none}:root>svg:target{display:block}</style><svg viewBox="0 0 28 28" id="apple-music" xmlns="http://www.w3.org/2000/svg"><path d="M27.997 7.146c0-.86-.072-1.718-.278-2.557-.37-1.527-1.24-2.693-2.543-3.55a5.87 5.87 0 00-2.192-.847 11.682 11.682 0 00-1.822-.174c-.046-.004-.096-.014-.146-.018H6.989c-.178.014-.356.023-.533.032-.87.05-1.736.14-2.557.468-1.558.616-2.685 1.691-3.34 3.24C.33 4.266.215 4.82.134 5.387.066 5.84.03 6.302.017 6.762c0 .037-.01.073-.01.11v14.26l.028.492c.06.953.182 1.896.584 2.771.756 1.655 2.028 2.743 3.773 3.267.488.15.999.219 1.509.265.647.063 1.294.072 1.942.072h12.87c.61 0 1.22-.041 1.831-.118.962-.123 1.864-.406 2.68-.943a5.898 5.898 0 002.192-2.575c.22-.493.342-1.016.433-1.546.133-.788.16-1.586.16-2.383-.005-4.43 0-8.86-.005-13.29l-.007.002zM20.505 11.8v6.663c0 .487-.069.966-.287 1.407-.337.688-.884 1.121-1.618 1.331a5.288 5.288 0 01-1.249.2 2.17 2.17 0 01-2.265-1.79 2.19 2.19 0 011.212-2.361c.373-.182.78-.291 1.184-.374.442-.095.884-.182 1.322-.282.323-.073.533-.269.596-.602a.92.92 0 00.023-.223V9.415a.878.878 0 00-.031-.214c-.046-.178-.174-.283-.356-.274-.187.008-.369.04-.55.078-.89.173-1.778.35-2.663.532l-4.315.871c-.018.005-.041.014-.06.014-.323.091-.437.237-.451.574-.004.05 0 .1 0 .15-.004 3.036 0 6.071-.004 9.106 0 .492-.056.976-.25 1.43-.324.748-.898 1.218-1.673 1.44a5.1 5.1 0 01-1.258.201c-1.117.041-2.047-.702-2.237-1.8-.165-.947.268-1.968 1.344-2.424.419-.174.852-.269 1.294-.36l1.002-.205c.447-.095.68-.378.702-.834V7.164c0-.146.019-.292.05-.433.082-.333.32-.525.638-.603.297-.077.602-.132.902-.196.857-.173 1.709-.346 2.566-.515l2.647-.538c.784-.155 1.563-.314 2.347-.469.256-.05.515-.105.774-.123.36-.032.611.196.648.56.009.087.014.174.014.26v6.686l.002.006z"/></svg><svg fill="none" viewBox="0 0 27 27" id="arrow-btn" xmlns="http://www.w3.org/2000/svg"><path fill="#4E5871" d="M20.195 2.707l3.83 3.83L3.83 26.732 0 22.902z"/><path fill="#4E5871" d="M22.75.95v5.417H1.083V.95z"/><path fill="#4E5871" d="M21 1h5.42v25H21z"/></svg><svg fill="none" viewBox="0 0 27 26" id="arrow-btn-grey" xmlns="http://www.w3.org/2000/svg"><path fill="#B4BAC7" d="M20.195 1.757l3.83 3.83L3.832 25.782 0 21.952z"/><path fill="#B4BAC7" d="M22.75 0v5.417H1.083V0z"/><path fill="#B4BAC7" d="M21 .05h5.42v25H21z"/></svg><svg fill="none" viewBox="0 0 27 27" id="arrow-btn-light" xmlns="http://www.w3.org/2000/svg"><path fill="#F6F5F0" d="M20.195 2.707l3.83 3.83L3.83 26.732 0 22.902z"/><path fill="#F6F5F0" d="M22.75.95v5.417H1.083V.95z"/><path fill="#F6F5F0" d="M21 1h5.42v25H21z"/></svg><svg viewBox="0 0 27 24" id="arrow-slider" xmlns="http://www.w3.org/2000/svg"><path d="M.94 10.94a1.5 1.5 0 000 2.12l9.545 9.547a1.5 1.5 0 102.122-2.122L4.12 12l8.486-8.485a1.5 1.5 0 10-2.122-2.122L.94 10.94zM27 10.5H2v3h25v-3z"/></svg><svg viewBox="0 0 28 28" id="itunes" xmlns="http://www.w3.org/2000/svg"><path d="M13.917 28c-2.897 0-5.714-.907-8.113-2.64a13.917 13.917 0 01-5.616-9.107A13.946 13.946 0 012.627 5.827a13.825 13.825 0 019.077-5.64A13.803 13.803 0 0122.082 2.64a13.922 13.922 0 015.618 9.108 13.95 13.95 0 01-2.44 10.426 13.831 13.831 0 01-9.076 5.641 14.2 14.2 0 01-2.267.184zm-7.553-3.414a12.859 12.859 0 009.665 2.287 12.885 12.885 0 008.453-5.255c4.18-5.837 2.853-14.004-2.96-18.204a12.86 12.86 0 00-9.665-2.286 12.888 12.888 0 00-8.453 5.254C-.777 12.22.552 20.386 6.364 24.586zm12.373-4.144a2.426 2.426 0 001.702-1.713l.072-.252.01-6.75c.006-5.057 0-6.783-.029-6.878a.623.623 0 00-.137-.25.6.6 0 00-.323-.085c-.085 0-.379.041-.653.091-1.214.222-8.372 1.647-8.494 1.692a.917.917 0 00-.466.413l-.076.15s-.036 10.581-.09 10.7a.817.817 0 01-.44.409c-.234.06-.471.114-.71.16-1.436.285-1.97.49-2.42.934a1.979 1.979 0 00-.53.957c-.077.343-.052.858.06 1.172.117.328.306.608.552.828.224.173.49.301.787.378.656.168 1.887-.018 2.517-.382.305-.192.57-.441.778-.734.07-.104.175-.313.234-.466.205-.532.21-10.01.238-10.13a.514.514 0 01.373-.401 760.09 760.09 0 017.259-1.435c.17-.024.331.031.42.14a.338.338 0 01.127.112c.056.081.06.248.068 3.249.01 3.453.014 3.374-.174 3.592-.136.159-.307.22-1.008.362-1.066.22-1.43.322-1.839.521-.51.249-.792.52-1.011.974a1.843 1.843 0 00-.213.88c.002.572.198 1.016.642 1.453.041.04.08.077.121.113.224.173.452.277.739.343.432.096 1.311.029 1.915-.147z"/></svg><svg fill="none" viewBox="0 0 40 40" id="laught" xmlns="http://www.w3.org/2000/svg"><path d="M22.5 10a1.25 1.25 0 00-2.03-.975l-5.907 4.725H8.75A1.25 1.25 0 007.5 15v10a1.25 1.25 0 001.25 1.25h5.813l5.907 4.725A1.25 1.25 0 0022.5 30V10zm7.563 10a11.217 11.217 0 01-3.296 7.955L25 26.188A8.724 8.724 0 0027.563 20 8.728 8.728 0 0025 13.813l1.767-1.768A11.216 11.216 0 0130.063 20z" fill="#4E5871"/></svg><svg fill="none" viewBox="0 0 40 40" id="laught-full" xmlns="http://www.w3.org/2000/svg"><path d="M22.5 10a1.25 1.25 0 00-2.03-.975l-5.907 4.725H8.75A1.25 1.25 0 007.5 15v10a1.25 1.25 0 001.25 1.25h5.813l5.907 4.725A1.25 1.25 0 0022.5 30V10zM26.71 11.786c1.803 2.243 2.721 4.97 2.757 8.181 0 3.08-.919 5.718-2.756 7.918l-1.855-2.376c1.271-1.583 1.908-3.453 1.908-5.608 0-2.2-.636-4.113-1.909-5.74l1.856-2.375zm3.18-3.893c2.651 3.299 3.976 7.28 3.976 11.942 0 4.663-1.325 8.665-3.975 12.008l-1.961-2.44c2.12-2.596 3.18-5.774 3.18-9.535 0-3.76-1.06-6.96-3.18-9.6l1.96-2.375z" fill="#4E5871"/></svg><svg viewBox="0 0 28 22" id="mail" xmlns="http://www.w3.org/2000/svg"><path d="M4 1h20c1.375 0 2.5 1.125 2.5 2.5v15c0 1.375-1.125 2.5-2.5 2.5H4a2.507 2.507 0 01-2.5-2.5v-15C1.5 2.125 2.625 1 4 1z"/><path d="M26.5 3.5L14 12.25 1.5 3.5"/></svg><svg fill="none" viewBox="0 0 40 40" id="mute" xmlns="http://www.w3.org/2000/svg"><path d="M27 10.248a1.25 1.25 0 00-2.03-.975l-5.907 4.725H13.25a1.25 1.25 0 00-1.25 1.25v10a1.25 1.25 0 001.25 1.25h5.813l5.907 4.725a1.25 1.25 0 002.03-.975v-20zm-6.72 5.975l4.22-3.375v14.8l-4.22-3.375a1.25 1.25 0 00-.78-.275h-5v-7.5h5c.284 0 .559-.097.78-.275z" fill="#4E5871"/></svg><svg fill="none" viewBox="0 0 40 40" id="mute-full" xmlns="http://www.w3.org/2000/svg"><path d="M32.773 30l-.667-.639-1.696-1.677-1.607-1.589-1.302-1.288-2.5-2.472V11.72c0-.223-.062-.443-.178-.634a1.245 1.245 0 00-1.132-.6 1.26 1.26 0 00-.633.206L17.16 14.58l-5.025-4.97-1.768 1.748L31 31.743 32.773 30zM22.5 14.03v5.832l-3.54-3.5 3.54-2.332zm-10 13.761h3.37l7.186 4.738a1.265 1.265 0 001.284.061c.2-.105.366-.263.482-.455.116-.192.178-.411.178-.635v-2.323l-2.5-2.472v2.486l-5.557-3.664c-.031-.021-.07-.025-.102-.041a1.243 1.243 0 00-.478-.144c-.04-.003-.074-.023-.114-.023H12.5v-7.417H13.6l-2.221-2.197c-.413.204-.76.518-1.004.905A2.446 2.446 0 0010 17.902v7.417c0 1.363 1.121 2.472 2.5 2.472z" fill="#4E5871"/></svg><svg fill="none" viewBox="0 0 24 28" id="pause" xmlns="http://www.w3.org/2000/svg"><path d="M3.6 0C1.612 0 0 1.568 0 3.5v21C0 26.432 1.613 28 3.6 28H6c1.987 0 3.6-1.568 3.6-3.5v-21C9.6 1.568 7.988 0 6 0H3.6zM18 0c-1.988 0-3.6 1.568-3.6 3.5v21c0 1.932 1.612 3.5 3.6 3.5h2.4c1.988 0 3.6-1.568 3.6-3.5v-21C24 1.568 22.387 0 20.4 0H18z" fill="#4E5871"/></svg><svg fill="none" viewBox="0 0 27 27" id="phone" xmlns="http://www.w3.org/2000/svg"><path d="M10.515 5.778a5.988 5.988 0 00-3.086 1.64 5.97 5.97 0 00-1.642 3.079M10.515 1a10.78 10.78 0 00-6.423 3.078A10.743 10.743 0 001 10.485m1.197 9.532v3.584a2.385 2.385 0 001.627 2.273c.315.107.65.146.982.116 3.683-.4 7.22-1.655 10.329-3.667a23.316 23.316 0 007.18-7.167A23.61 23.61 0 0025.99 4.799a2.385 2.385 0 00-1.416-2.4 2.398 2.398 0 00-.966-.204h-3.59a2.396 2.396 0 00-2.394 2.054 15.317 15.317 0 01-.837 3.357 2.385 2.385 0 00.538 2.52l1.52 1.518a19.133 19.133 0 01-7.181 7.167l-1.52-1.517a2.395 2.395 0 00-2.525-.538 15.39 15.39 0 01-3.364.837 2.395 2.395 0 00-2.058 2.424z"/></svg><svg fill="none" viewBox="0 0 19 22" id="play" xmlns="http://www.w3.org/2000/svg"><path d="M18 9.268c1.333.77 1.333 2.694 0 3.464l-15 8.66c-1.333.77-3-.192-3-1.732V2.34C0 .8 1.667-.162 3 .608l15 8.66z" fill="#4E5871"/></svg><svg viewBox="0 0 28 28" id="spotify" xmlns="http://www.w3.org/2000/svg"><path d="M14 0C6.3 0 0 6.3 0 14s6.3 14 14 14 14-6.3 14-14S21.77 0 14 0zm6.441 20.23c-.28.419-.77.56-1.191.28-3.29-2.03-7.42-2.451-12.321-1.331-.488.142-.909-.209-1.049-.629-.14-.491.21-.91.63-1.05 5.32-1.191 9.94-.7 13.58 1.54.49.21.559.769.351 1.19zm1.68-3.85c-.351.49-.981.7-1.472.35-3.779-2.31-9.519-3.01-13.929-1.61-.559.14-1.19-.14-1.33-.7-.14-.56.14-1.191.7-1.331 5.11-1.539 11.41-.768 15.75 1.891.421.211.63.91.281 1.4zm.14-3.92C17.78 9.8 10.29 9.52 6.02 10.851c-.7.209-1.4-.211-1.61-.841-.21-.701.21-1.4.84-1.611 4.97-1.47 13.16-1.19 18.341 1.891.629.35.839 1.19.489 1.82-.349.491-1.19.699-1.819.35z"/></svg><svg fill="none" viewBox="0 0 26 26" id="telegram" xmlns="http://www.w3.org/2000/svg"><path d="M8.17 14.862l-6.234-2.856c-1.905-1.013-.466-2.44.48-2.855l20.62-8.09c1.917-.38 2.077 1.11 1.917 1.904L19.68 23.427c-.767 2.285-1.918 1.587-2.398.952l-3.356-4.759M8.17 14.862l.48 8.09m-.48-8.09L24.474 1.537 12.007 17.241m-3.357 5.71l5.275-3.33M8.65 22.95l3.357-5.71m1.918 2.38l-1.918-2.38"/></svg><svg fill="none" viewBox="0 0 46 57" id="top" xmlns="http://www.w3.org/2000/svg"><path d="M25.121.879a3 3 0 00-4.242 0L1.787 19.97a3 3 0 104.242 4.242L23 7.243l16.97 16.97a3 3 0 104.243-4.242L25.121.879zM26 57V3h-6v54h6z" fill="#4E5871"/></svg><svg fill="none" viewBox="0 0 150 5" id="volume" xmlns="http://www.w3.org/2000/svg"><path stroke="#4E5871" stroke-width="5" stroke-linecap="round" d="M2.5 2.5h145"/></svg><svg viewBox="0 0 28 28" id="yandex-music" xmlns="http://www.w3.org/2000/svg"><g clip-path="url(#sclip0_617_960)"><path opacity=".5" d="M5.666 2.862A13.915 13.915 0 0112.698.184v4.199a9.74 9.74 0 1010.806 7.763L27.03 9.31l-.002-.023A13.915 13.915 0 115.666 2.862z"/><path d="M24.371 4.821l.015.037L22.03 8.6a9.79 9.79 0 00-3.349-3.074v8.516a4.731 4.731 0 11-2.087-3.924V.378A13.899 13.899 0 0124.37 4.82z"/></g><defs><clipPath id="sclip0_617_960"><path fill="#fff" d="M0 0h28v28H0z"/></clipPath></defs></svg><svg fill="none" viewBox="0 0 30 22" id="youtube" xmlns="http://www.w3.org/2000/svg"><path d="M28.175 4.025a3.475 3.475 0 00-2.425-2.5C23.6 1 15 1 15 1s-8.6 0-10.75.575a3.475 3.475 0 00-2.425 2.5 36.25 36.25 0 00-.575 6.612 36.25 36.25 0 00.575 6.663 3.475 3.475 0 002.425 2.4c2.15.575 10.75.575 10.75.575s8.6 0 10.75-.575a3.475 3.475 0 002.425-2.5c.39-2.165.583-4.362.575-6.563a36.238 36.238 0 00-.575-6.662z"/><path d="M12.188 14.775l7.187-4.087L12.187 6.6v8.175z"/></svg></svg>